<svg aria-hidden="true" style="position: absolute; width: 0; height: 0; overflow: hidden;" version="1.1" xmlns="http://www.w3.org/2000/svg" xmlns:xlink="http://www.w3.org/1999/xlink">
<defs>
<symbol id="sms" width="24" height="24" viewBox="0 0 24 24" fill="none" xmlns="http://www.w3.org/2000/svg">
<path d="M17 20.5H7C4 20.5 2 19 2 15.5V8.5C2 5 4 3.5 7 3.5H17C20 3.5 22 5 22 8.5V15.5C22 19 20 20.5 17 20.5Z" stroke="#173D33" stroke-width="1.5" stroke-miterlimit="10" stroke-linecap="round" stroke-linejoin="round"/>
<path d="M17 9L13.87 11.5C12.84 12.32 11.15 12.32 10.12 11.5L7 9" stroke="#173D33" stroke-width="1.5" stroke-miterlimit="10" stroke-linecap="round" stroke-linejoin="round"/>
</symbol>
<symbol id="map" width="24" height="24" viewBox="0 0 24 24" fill="none" xmlns="http://www.w3.org/2000/svg">
<path d="M2.29004 7.77998V17.51C2.29004 19.41 3.64004 20.19 5.28004 19.25L7.63004 17.91C8.14004 17.62 8.99004 17.59 9.52004 17.86L14.77 20.49C15.3 20.75 16.15 20.73 16.66 20.44L20.99 17.96C21.54 17.64 22 16.86 22 16.22V6.48998C22 4.58998 20.65 3.80998 19.01 4.74998L16.66 6.08998C16.15 6.37998 15.3 6.40998 14.77 6.13998L9.52004 3.51998C8.99004 3.25998 8.14004 3.27998 7.63004 3.56998L3.30004 6.04998C2.74004 6.36998 2.29004 7.14998 2.29004 7.77998Z" stroke="#173D33" stroke-width="1.5" stroke-linecap="round" stroke-linejoin="round"/>
<path d="M8.56006 4V17" stroke="#173D33" stroke-width="1.5" stroke-linecap="round" stroke-linejoin="round"/>
<path d="M15.73 6.61914V19.9991" stroke="#173D33" stroke-width="1.5" stroke-linecap="round" stroke-linejoin="round"/>
</symbol>
<symbol id="facebook" width="24" height="24" viewBox="0 0 24 24" fill="none" xmlns="http://www.w3.org/2000/svg">
<path d="M14 9.3V12.2H16.6C16.8 12.2 16.9 12.4 16.9 12.6L16.5 14.5C16.5 14.6 16.3 14.7 16.2 14.7H14V22H11V14.8H9.3C9.1 14.8 9 14.7 9 14.5V12.6C9 12.4 9.1 12.3 9.3 12.3H11V9C11 7.3 12.3 6 14 6H16.7C16.9 6 17 6.1 17 6.3V8.7C17 8.9 16.9 9 16.7 9H14.3C14.1 9 14 9.1 14 9.3Z" fill="#173D33"/>
<path d="M15 22H9C4 22 2 20 2 15V9C2 4 4 2 9 2H15C20 2 22 4 22 9V15C22 20 20 22 15 22Z" stroke="#173D33" stroke-width="1.5" stroke-linecap="round" stroke-linejoin="round"/>
</symbol>
<symbol id="instagram" width="24" height="24" viewBox="0 0 24 24" fill="none" xmlns="http://www.w3.org/2000/svg">
<path d="M9 22H15C20 22 22 20 22 15V9C22 4 20 2 15 2H9C4 2 2 4 2 9V15C2 20 4 22 9 22Z" stroke="#173D33" stroke-width="1.5" stroke-linecap="round" stroke-linejoin="round"/>
<path d="M12 15.5C13.933 15.5 15.5 13.933 15.5 12C15.5 10.067 13.933 8.5 12 8.5C10.067 8.5 8.5 10.067 8.5 12C8.5 13.933 10.067 15.5 12 15.5Z" stroke="#173D33" stroke-width="1.5" stroke-linecap="round" stroke-linejoin="round"/>
<path d="M17.6361 7H17.6477" stroke="#173D33" stroke-width="2" stroke-linecap="round" stroke-linejoin="round"/>
</symbol>
<symbol id="call" width="24" height="24" viewBox="0 0 24 24" fill="none" xmlns="http://www.w3.org/2000/svg">
<path d="M21.97 18.33C21.97 18.69 21.89 19.06 21.72 19.42C21.55 19.78 21.33 20.12 21.04 20.44C20.55 20.98 20.01 21.37 19.4 21.62C18.8 21.87 18.15 22 17.45 22C16.43 22 15.34 21.76 14.19 21.27C13.04 20.78 11.89 20.12 10.75 19.29C9.6 18.45 8.51 17.52 7.47 16.49C6.44 15.45 5.51 14.36 4.68 13.22C3.86 12.08 3.2 10.94 2.72 9.81C2.24 8.67 2 7.58 2 6.54C2 5.86 2.12 5.21 2.36 4.61C2.6 4 2.98 3.44 3.51 2.94C4.15 2.31 4.85 2 5.59 2C5.87 2 6.15 2.06 6.4 2.18C6.66 2.3 6.89 2.48 7.07 2.74L9.39 6.01C9.57 6.26 9.7 6.49 9.79 6.71C9.88 6.92 9.93 7.13 9.93 7.32C9.93 7.56 9.86 7.8 9.72 8.03C9.59 8.26 9.4 8.5 9.16 8.74L8.4 9.53C8.29 9.64 8.24 9.77 8.24 9.93C8.24 10.01 8.25 10.08 8.27 10.16C8.3 10.24 8.33 10.3 8.35 10.36C8.53 10.69 8.84 11.12 9.28 11.64C9.73 12.16 10.21 12.69 10.73 13.22C11.27 13.75 11.79 14.24 12.32 14.69C12.84 15.13 13.27 15.43 13.61 15.61C13.66 15.63 13.72 15.66 13.79 15.69C13.87 15.72 13.95 15.73 14.04 15.73C14.21 15.73 14.34 15.67 14.45 15.56L15.21 14.81C15.46 14.56 15.7 14.37 15.93 14.25C16.16 14.11 16.39 14.04 16.64 14.04C16.83 14.04 17.03 14.08 17.25 14.17C17.47 14.26 17.7 14.39 17.95 14.56L21.26 16.91C21.52 17.09 21.7 17.3 21.81 17.55C21.91 17.8 21.97 18.05 21.97 18.33Z" stroke="#173D33" stroke-width="1.5" stroke-miterlimit="10"/>
</symbol>
<symbol id="logo" viewBox="0 0 55 32">
<path fill="#173d33" style="fill: var(--color1, #173d33)" d="M37.919 22.771c-0.115-0.273-9.583-18.774-9.738-19.029-0.327-0.772-0.812-1.47-1.425-2.049s-1.34-1.028-2.136-1.317-1.644-0.414-2.492-0.366c-0.847 0.048-1.675 0.268-2.433 0.646s-1.427 0.906-1.968 1.55c-0.541 0.645-0.942 1.392-1.177 2.197s-0.299 1.647-0.189 2.477c0.11 0.83 0.393 1.628 0.83 2.345 0.115 0.273 9.177 17.981 9.332 18.236 0.116 0.274 0.251 0.539 0.406 0.793 0.327 0.772 0.812 1.47 1.425 2.049s1.34 1.028 2.136 1.317 1.644 0.414 2.492 0.366c0.847-0.048 1.675-0.268 2.433-0.646s1.427-0.906 1.968-1.55 0.942-1.393 1.177-2.197c0.235-0.804 0.299-1.647 0.189-2.477s-0.393-1.628-0.83-2.345z"></path>
<path fill="#97d28b" style="fill: var(--color2, #97d28b)" d="M26.985 10.252c0.58-0.61 1.027-1.331 1.312-2.119s0.402-1.625 0.345-2.46c-0.058-0.835-0.289-1.648-0.68-2.391s-0.933-1.397-1.592-1.924c-0.659-0.527-1.421-0.914-2.239-1.137s-1.673-0.278-2.513-0.161c-0.84 0.117-1.646 0.404-2.369 0.842s-1.346 1.019-1.831 1.705c-0.204 0.214-15.577 18.897-15.748 19.139-0.58 0.61-1.027 1.331-1.312 2.119s-0.403 1.625-0.345 2.46 0.289 1.649 0.68 2.391c0.391 0.742 0.933 1.397 1.592 1.924s1.421 0.914 2.239 1.137c0.817 0.223 1.673 0.278 2.513 0.161s1.646-0.404 2.369-0.842c0.723-0.438 1.346-1.019 1.831-1.705 0.204-0.214 15.577-18.897 15.748-19.139z"></path>
<path fill="#97d28b" style="fill: var(--color2, #97d28b)" d="M53.439 10.252c0.58-0.61 1.027-1.331 1.312-2.119s0.403-1.625 0.345-2.46c-0.058-0.835-0.289-1.648-0.68-2.391s-0.933-1.397-1.592-1.924c-0.659-0.527-1.421-0.914-2.239-1.137s-1.673-0.278-2.513-0.161c-0.84 0.117-1.646 0.404-2.369 0.842s-1.346 1.019-1.831 1.705c-0.204 0.214-15.577 18.897-15.748 19.138-0.58 0.61-1.027 1.332-1.312 2.119s-0.403 1.625-0.345 2.46c0.058 0.834 0.289 1.648 0.68 2.391s0.933 1.397 1.592 1.924c0.659 0.527 1.421 0.914 2.239 1.137s1.673 0.278 2.513 0.161c0.84-0.117 1.646-0.404 2.369-0.842s1.346-1.019 1.831-1.705c0.204-0.214 15.577-18.897 15.748-19.139z"></path>
</symbol>
<symbol id="eco" viewBox="0 0 216 32">
<path d="M12.461 31.269c-6.589 0-11.236-4.646-11.236-10.982s4.646-10.982 11.236-10.982c6.589 0 11.151 4.646 11.151 10.982v1.647h-17.572c0.634 3.337 3.168 5.153 6.42 5.153 2.45 0 4.224-0.718 5.364-2.281h4.942c-1.605 3.928-5.407 6.463-10.307 6.463zM6.167 18.090h12.63c-0.803-3.041-3.295-4.604-6.336-4.604-3.126 0-5.491 1.605-6.294 4.604zM35.604 31.269c-6.589 0-11.236-4.646-11.236-10.982s4.646-10.982 11.236-10.982c5.618 0 9.757 3.379 10.813 8.237h-4.604c-0.972-2.408-3.21-4.013-6.209-4.013-3.971 0-6.632 2.83-6.632 6.758s2.661 6.758 6.632 6.758c2.999 0 5.238-1.605 6.209-4.013h4.604c-1.056 4.858-5.196 8.237-10.813 8.237zM58.417 31.269c-6.589 0-11.236-4.646-11.236-10.982s4.646-10.982 11.236-10.982c6.589 0 11.236 4.646 11.236 10.982s-4.646 10.982-11.236 10.982zM58.417 27.045c3.971 0 6.589-2.83 6.589-6.758s-2.619-6.758-6.589-6.758c-3.971 0-6.632 2.83-6.632 6.758s2.661 6.758 6.632 6.758zM79.192 31.269c-5.28 0-8.617-2.83-8.744-6.674h4.604c0.084 1.563 1.478 2.619 4.14 2.619 2.788 0 4.097-1.183 4.097-2.619 0-1.774-1.985-1.985-4.435-2.323-3.379-0.422-7.983-1.056-7.983-5.998 0-4.182 3.252-6.97 8.279-6.97s8.152 2.872 8.237 6.505h-4.52c-0.127-1.436-1.436-2.45-3.675-2.45-2.408 0-3.717 1.14-3.717 2.577 0 1.774 2.070 1.985 4.435 2.323 3.21 0.422 7.983 1.014 7.983 5.998 0 4.224-3.421 7.012-8.701 7.012zM99.959 31.269c-6.589 0-11.236-4.646-11.236-10.982s4.646-10.982 11.236-10.982c6.589 0 11.236 4.646 11.236 10.982s-4.646 10.982-11.236 10.982zM99.959 27.045c3.971 0 6.589-2.83 6.589-6.758s-2.619-6.758-6.589-6.758c-3.971 0-6.632 2.83-6.632 6.758s2.661 6.758 6.632 6.758zM113.511 30.72v-29.99h4.562v29.99h-4.562zM131.599 31.269c-6.168 0-10.307-3.548-10.307-10.56v-10.856h4.562v10.856c0 4.224 2.282 6.336 5.745 6.336s5.745-2.112 5.745-6.336v-10.856h4.562v10.856c0 6.97-4.14 10.56-10.307 10.56zM152.8 31.269c-5.027 0-8.448-2.788-8.448-8.532v-20.275h4.562v7.392h11.109v4.14h-11.109v8.744c0 3.041 1.563 4.308 3.886 4.308s3.928-1.225 3.928-4.308v-0.507h4.52v0.507c0 5.745-3.421 8.532-8.448 8.532zM165.875 6.897c-1.774 0-3.084-1.352-3.084-3.126s1.309-3.126 3.084-3.126c1.774 0 3.084 1.352 3.084 3.126s-1.309 3.126-3.084 3.126zM163.552 30.72v-20.867h4.562v20.867h-4.562zM181.683 31.269c-6.589 0-11.236-4.646-11.236-10.982s4.646-10.982 11.236-10.982c6.589 0 11.236 4.646 11.236 10.982s-4.646 10.982-11.236 10.982zM181.683 27.045c3.971 0 6.589-2.83 6.589-6.758s-2.619-6.758-6.589-6.758c-3.971 0-6.632 2.83-6.632 6.758s2.661 6.758 6.632 6.758zM194.518 30.72v-10.856c0-6.97 4.14-10.56 10.307-10.56s10.307 3.548 10.307 10.56v10.856h-4.562v-10.856c0-4.224-2.281-6.336-5.745-6.336s-5.745 2.112-5.745 6.336v10.856h-4.562z"></path>
</symbol>
<symbol id="GREENERGY-FOR-LIFE" viewBox="0 0 105 32">
<path fill="#97d28b" style="fill: var(--color1, #97d28b)" d="M7.004 14.471c-1.944 0-3.419-0.61-4.427-1.831s-1.511-2.809-1.511-4.764c0-0.901 0.113-1.736 0.338-2.507 0.237-0.782 0.581-1.481 1.031-2.098 0.462-0.628 1.079-1.12 1.849-1.476s1.653-0.533 2.649-0.533c1.363 0 2.477 0.32 3.342 0.96 0.865 0.628 1.458 1.541 1.778 2.738l-1.618 0.338c-0.533-1.695-1.695-2.542-3.484-2.542-1.339 0-2.382 0.456-3.129 1.369s-1.12 2.181-1.12 3.804c0 1.636 0.379 2.898 1.138 3.787 0.759 0.877 1.825 1.316 3.2 1.316 1.15 0 2.044-0.284 2.684-0.853 0.652-0.569 0.978-1.256 0.978-2.062v-1.333h-3.538v-1.351h5.084v2.418c0 1.316-0.456 2.418-1.369 3.307-0.913 0.877-2.204 1.316-3.876 1.316zM14.559 14.222v-12.693h4.658c1.339 0 2.388 0.326 3.147 0.978 0.759 0.64 1.138 1.535 1.138 2.684 0 0.924-0.255 1.695-0.764 2.311-0.51 0.604-1.233 1.001-2.169 1.191l3.093 5.529h-1.884l-2.809-5.298h-2.773v5.298h-1.636zM16.194 7.449h2.969c0.841 0 1.493-0.19 1.956-0.569 0.474-0.379 0.711-0.907 0.711-1.582 0-1.553-0.901-2.329-2.702-2.329h-2.933v4.48zM25.809 14.222v-12.693h8.569v1.44h-6.933v4.107h5.742v1.44h-5.742v4.267h6.951v1.44h-8.587zM36.557 14.222v-12.693h8.569v1.44h-6.933v4.107h5.742v1.44h-5.742v4.267h6.951v1.44h-8.587zM47.304 14.222v-12.693h1.973l5.831 8.693 0.96 1.529h0.178l-0.018-2.436v-7.787h1.582v12.693h-1.884l-5.636-8.338-1.227-1.884h-0.16l0.018 2.418v7.804h-1.618z"></path>
<path fill="#173d33" style="fill: var(--color2, #173d33)" d="M60.881 14.222v-12.693h8.569v1.44h-6.933v4.107h5.742v1.44h-5.742v4.267h6.951v1.44h-8.587zM71.628 14.222v-12.693h4.658c1.339 0 2.388 0.326 3.147 0.978 0.758 0.64 1.138 1.535 1.138 2.684 0 0.924-0.255 1.695-0.764 2.311-0.51 0.604-1.233 1.001-2.169 1.191l3.093 5.529h-1.884l-2.809-5.298h-2.773v5.298h-1.636zM73.264 7.449h2.969c0.841 0 1.493-0.19 1.956-0.569 0.474-0.379 0.711-0.907 0.711-1.582 0-1.553-0.901-2.329-2.702-2.329h-2.933v4.48zM87.999 14.471c-1.944 0-3.419-0.61-4.427-1.831s-1.511-2.809-1.511-4.764c0-0.901 0.113-1.736 0.338-2.507 0.237-0.782 0.581-1.481 1.031-2.098 0.462-0.628 1.078-1.12 1.849-1.476s1.653-0.533 2.649-0.533c1.363 0 2.477 0.32 3.342 0.96 0.865 0.628 1.458 1.541 1.778 2.738l-1.618 0.338c-0.533-1.695-1.695-2.542-3.484-2.542-1.339 0-2.382 0.456-3.129 1.369s-1.12 2.181-1.12 3.804c0 1.636 0.379 2.898 1.138 3.787 0.758 0.877 1.825 1.316 3.2 1.316 1.15 0 2.044-0.284 2.684-0.853 0.652-0.569 0.978-1.256 0.978-2.062v-1.333h-3.538v-1.351h5.084v2.418c0 1.316-0.456 2.418-1.369 3.307-0.913 0.877-2.204 1.316-3.876 1.316zM98.459 14.222v-4.498l-4.569-8.196h1.902l3.467 6.596 3.484-6.596h1.884l-4.533 8.196v4.498h-1.636zM1.884 30.222v-12.693h8.32v1.44h-6.684v4.409h5.547v1.458h-5.547v5.387h-1.636zM16.989 30.471c-1.884 0-3.36-0.634-4.427-1.902-1.055-1.268-1.582-2.839-1.582-4.711s0.539-3.437 1.618-4.693c1.090-1.268 2.554-1.902 4.391-1.902s3.301 0.634 4.391 1.902c1.090 1.268 1.636 2.833 1.636 4.693 0 1.873-0.533 3.443-1.6 4.711-1.055 1.268-2.53 1.902-4.427 1.902zM16.989 29.013c1.327 0 2.382-0.468 3.164-1.404 0.794-0.936 1.191-2.187 1.191-3.751 0-1.553-0.397-2.797-1.191-3.733-0.794-0.96-1.849-1.44-3.164-1.44-1.292 0-2.341 0.48-3.147 1.44-0.794 0.936-1.191 2.181-1.191 3.733 0 1.564 0.391 2.815 1.173 3.751 0.794 0.936 1.849 1.404 3.164 1.404zM25.219 30.222v-12.693h4.658c1.339 0 2.388 0.326 3.147 0.978 0.758 0.64 1.138 1.535 1.138 2.684 0 0.924-0.255 1.695-0.764 2.311-0.51 0.604-1.233 1.001-2.169 1.191l3.093 5.529h-1.884l-2.809-5.298h-2.773v5.298h-1.636zM26.855 23.449h2.969c0.841 0 1.493-0.19 1.956-0.569 0.474-0.379 0.711-0.907 0.711-1.582 0-1.553-0.901-2.329-2.702-2.329h-2.933v4.48zM40.55 30.222v-12.693h1.636v11.236h6.667v1.458h-8.302zM50.534 30.222v-12.693h1.636v12.693h-1.636zM55.239 30.222v-12.693h8.32v1.44h-6.684v4.409h5.547v1.458h-5.547v5.387h-1.636zM65.362 30.222v-12.693h8.569v1.44h-6.933v4.107h5.742v1.44h-5.742v4.267h6.951v1.44h-8.587z"></path>
</symbol>
<symbol id="ranking" viewBox="0 0 16 16" fill="none" xmlns="http://www.w3.org/2000/svg">
<path d="M5.77992 9.33337H2.66659C1.93325 9.33337 1.33325 9.93337 1.33325 10.6667V14.6667H5.77992V9.33337Z" stroke="#173D33" stroke-miterlimit="10" stroke-linecap="round" stroke-linejoin="round"/>
<path d="M8.88677 6.66663H7.10677C6.37344 6.66663 5.77344 7.26663 5.77344 7.99996V14.6666H10.2201V7.99996C10.2201 7.26663 9.62677 6.66663 8.88677 6.66663Z" stroke="#173D33" stroke-miterlimit="10" stroke-linecap="round" stroke-linejoin="round"/>
<path d="M13.3333 11.3334H10.22V14.6667H14.6666V12.6667C14.6666 11.9334 14.0666 11.3334 13.3333 11.3334Z" stroke="#173D33" stroke-miterlimit="10" stroke-linecap="round" stroke-linejoin="round"/>
<path d="M8.34658 1.38L8.69991 2.08667C8.74658 2.18667 8.87324 2.28 8.97991 2.29333L9.61991 2.4C10.0266 2.46667 10.1266 2.76666 9.83324 3.05332L9.33324 3.55332C9.24658 3.63999 9.19991 3.8 9.22658 3.91333L9.36658 4.52667C9.47991 5.01334 9.21991 5.20001 8.79324 4.94668L8.19324 4.59334C8.08658 4.52668 7.90658 4.52668 7.79991 4.59334L7.19991 4.94668C6.77324 5.20001 6.51324 5.01334 6.62657 4.52667L6.76658 3.91333C6.79324 3.8 6.74658 3.63332 6.65991 3.55332L6.16658 3.06C5.87324 2.76666 5.96658 2.47332 6.37991 2.40666L7.01991 2.30001C7.12657 2.28001 7.25324 2.18668 7.29991 2.09334L7.65324 1.38666C7.84658 0.99999 8.15324 1 8.34658 1.38Z" stroke="#173D33" stroke-linecap="round" stroke-linejoin="round"/>
</symbol>
<symbol id="cpu" viewBox="0 0 16 16" fill="none" xmlns="http://www.w3.org/2000/svg">
<path d="M6.40008 13.3333H9.60008C12.2667 13.3333 13.3334 12.2666 13.3334 9.59996V6.39996C13.3334 3.73329 12.2667 2.66663 9.60008 2.66663H6.40008C3.73341 2.66663 2.66675 3.73329 2.66675 6.39996V9.59996C2.66675 12.2666 3.73341 13.3333 6.40008 13.3333Z" stroke="#173D33" stroke-linecap="round" stroke-linejoin="round"/>
<path d="M7.00008 11.3333H9.00008C10.6667 11.3333 11.3334 10.6666 11.3334 8.99996V6.99996C11.3334 5.33329 10.6667 4.66663 9.00008 4.66663H7.00008C5.33341 4.66663 4.66675 5.33329 4.66675 6.99996V8.99996C4.66675 10.6666 5.33341 11.3333 7.00008 11.3333Z" stroke="#173D33" stroke-linecap="round" stroke-linejoin="round"/>
<path d="M5.34009 2.66671V1.33337" stroke="#173D33" stroke-linecap="round" stroke-linejoin="round"/>
<path d="M8 2.66671V1.33337" stroke="#173D33" stroke-linecap="round" stroke-linejoin="round"/>
<path d="M10.6667 2.66671V1.33337" stroke="#173D33" stroke-linecap="round" stroke-linejoin="round"/>
<path d="M13.3333 5.33337H14.6666" stroke="#173D33" stroke-linecap="round" stroke-linejoin="round"/>
<path d="M13.3333 8H14.6666" stroke="#173D33" stroke-linecap="round" stroke-linejoin="round"/>
<path d="M13.3333 10.6666H14.6666" stroke="#173D33" stroke-linecap="round" stroke-linejoin="round"/>
<path d="M10.6667 13.3334V14.6667" stroke="#173D33" stroke-linecap="round" stroke-linejoin="round"/>
<path d="M8.00659 13.3334V14.6667" stroke="#173D33" stroke-linecap="round" stroke-linejoin="round"/>
<path d="M5.34009 13.3334V14.6667" stroke="#173D33" stroke-linecap="round" stroke-linejoin="round"/>
<path d="M1.33325 5.33337H2.66659" stroke="#173D33" stroke-linecap="round" stroke-linejoin="round"/>
<path d="M1.33325 8H2.66659" stroke="#173D33" stroke-linecap="round" stroke-linejoin="round"/>
<path d="M1.33325 10.6666H2.66659" stroke="#173D33" stroke-linecap="round" stroke-linejoin="round"/>
<path d="M7.9999 6.46667L7.37323 7.56001C7.23323 7.80001 7.34656 8.00001 7.62656 8.00001H8.37323C8.65323 8.00001 8.76656 8.20001 8.62656 8.44001L7.9999 9.53334" stroke="#173D33" stroke-linecap="round" stroke-linejoin="round"/>
</symbol>
<symbol id="global" viewBox="0 0 16 16" fill="none" xmlns="http://www.w3.org/2000/svg">
<path d="M14.6666 8.00004C14.6666 4.32004 11.6799 1.33337 7.99992 1.33337C4.31992 1.33337 1.33325 4.32004 1.33325 8.00004C1.33325 11.68 4.31992 14.6667 7.99992 14.6667" stroke="#173D33" stroke-linecap="round" stroke-linejoin="round"/>
<path d="M5.33324 2H5.9999C4.6999 5.89333 4.6999 10.1067 5.9999 14H5.33324" stroke="#173D33" stroke-linecap="round" stroke-linejoin="round"/>
<path d="M10 2C10.6467 3.94667 10.9733 5.97333 10.9733 8" stroke="#173D33" stroke-linecap="round" stroke-linejoin="round"/>
<path d="M2 10.6667V10C3.94667 10.6467 5.97333 10.9733 8 10.9733" stroke="#173D33" stroke-linecap="round" stroke-linejoin="round"/>
<path d="M2 5.99978C5.89333 4.69978 10.1067 4.69978 14 5.99978" stroke="#173D33" stroke-linecap="round" stroke-linejoin="round"/>
<path d="M12.8068 10.4933L10.4468 12.8534C10.3534 12.9467 10.2668 13.12 10.2468 13.2467L10.1201 14.1467C10.0734 14.4733 10.3001 14.7 10.6268 14.6533L11.5268 14.5267C11.6534 14.5067 11.8334 14.42 11.9201 14.3267L14.2801 11.9667C14.6868 11.56 14.8801 11.0867 14.2801 10.4867C13.6868 9.89334 13.2134 10.0867 12.8068 10.4933Z" stroke="#173D33" stroke-miterlimit="10" stroke-linecap="round" stroke-linejoin="round"/>
<path d="M12.4668 10.8334C12.6668 11.5534 13.2268 12.1134 13.9468 12.3134" stroke="#173D33" stroke-miterlimit="10" stroke-linecap="round" stroke-linejoin="round"/>
</symbol>
<symbol id="maximize" width="16" height="16" viewBox="0 0 16 16" fill="none" xmlns="http://www.w3.org/2000/svg">
<path d="M11.3333 2H13.9999V4.66667" stroke="#173D33" stroke-linecap="round" stroke-linejoin="round"/>
<path d="M10 6L14 2" stroke="#173D33" stroke-linecap="round" stroke-linejoin="round"/>
<path d="M4.66667 14H2V11.3334" stroke="#173D33" stroke-linecap="round" stroke-linejoin="round"/>
<path d="M6 10L2 14" stroke="#173D33" stroke-linecap="round" stroke-linejoin="round"/>
<path d="M9.3466 1.46672C8.91327 1.38005 8.45992 1.33337 7.99992 1.33337C4.31992 1.33337 1.33325 4.32004 1.33325 8.00004C1.33325 8.46004 1.37993 8.90671 1.46659 9.33337" stroke="#173D33" stroke-linecap="round" stroke-linejoin="round"/>
<path d="M6.65332 14.5333C7.08665 14.62 7.54 14.6666 8 14.6666C11.68 14.6666 14.6667 11.68 14.6667 7.99996C14.6667 7.54663 14.62 7.09996 14.5333 6.66663" stroke="#173D33" stroke-linecap="round" stroke-linejoin="round"/>
</symbol>
<symbol id="arr" viewBox="0 0 26 26" fill="none" xmlns="http://www.w3.org/2000/svg">
<path d="M9.99756 5.98669L20.0125 5.98669L20.0125 16.0017" stroke="#173D33" stroke-width="1.5" stroke-miterlimit="10" stroke-linecap="round" stroke-linejoin="round"/>
<path d="M5.98901 20.0109L19.8731 6.12688" stroke="#173D33" stroke-width="1.5" stroke-miterlimit="10" stroke-linecap="round" stroke-linejoin="round"/>
</symbol>
</defs>
</svg>
