<!-- Generated by IcoMoon.io -->
<svg version="1.1" xmlns="http://www.w3.org/2000/svg" width="32" height="32" viewBox="0 0 32 32">
<title>call</title>
<path fill="none" stroke-linejoin="miter" stroke-linecap="butt" stroke-miterlimit="10" stroke-width="2" stroke="#000" d="M29.293 24.44c0 0.48-0.107 0.973-0.333 1.453s-0.52 0.933-0.907 1.36c-0.653 0.72-1.373 1.24-2.187 1.573-0.8 0.333-1.667 0.507-2.6 0.507-1.36 0-2.813-0.32-4.347-0.973s-3.067-1.533-4.587-2.64c-1.533-1.12-2.987-2.36-4.373-3.733-1.373-1.387-2.613-2.84-3.72-4.36-1.093-1.52-1.973-3.040-2.613-4.547-0.64-1.52-0.96-2.973-0.96-4.36 0-0.907 0.16-1.773 0.48-2.573 0.32-0.813 0.827-1.56 1.533-2.227 0.853-0.84 1.787-1.253 2.773-1.253 0.373 0 0.747 0.080 1.080 0.24 0.347 0.16 0.653 0.4 0.893 0.747l3.093 4.36c0.24 0.333 0.413 0.64 0.533 0.933 0.12 0.28 0.187 0.56 0.187 0.813 0 0.32-0.093 0.64-0.28 0.947-0.173 0.307-0.427 0.627-0.747 0.947l-1.013 1.053c-0.147 0.147-0.213 0.32-0.213 0.533 0 0.107 0.013 0.2 0.040 0.307 0.040 0.107 0.080 0.187 0.107 0.267 0.24 0.44 0.653 1.013 1.24 1.707 0.6 0.693 1.24 1.4 1.933 2.107 0.72 0.707 1.413 1.36 2.12 1.96 0.693 0.587 1.267 0.987 1.72 1.227 0.067 0.027 0.147 0.067 0.24 0.107 0.107 0.040 0.213 0.053 0.333 0.053 0.227 0 0.4-0.080 0.547-0.227l1.013-1c0.333-0.333 0.653-0.587 0.96-0.747 0.307-0.187 0.613-0.28 0.947-0.28 0.253 0 0.52 0.053 0.813 0.173s0.6 0.293 0.933 0.52l4.413 3.133c0.347 0.24 0.587 0.52 0.733 0.853 0.133 0.333 0.213 0.667 0.213 1.040z"></path>
</svg>
