<!-- Generated by IcoMoon.io -->
<svg version="1.1" xmlns="http://www.w3.org/2000/svg" width="216" height="32" viewBox="0 0 216 32">
<title>logo-label2</title>
<path d="M12.461 31.269c-6.589 0-11.236-4.646-11.236-10.982s4.646-10.982 11.236-10.982c6.589 0 11.151 4.646 11.151 10.982v1.647h-17.572c0.634 3.337 3.168 5.153 6.42 5.153 2.45 0 4.224-0.718 5.364-2.281h4.942c-1.605 3.928-5.407 6.463-10.307 6.463zM6.167 18.090h12.63c-0.803-3.041-3.295-4.604-6.336-4.604-3.126 0-5.491 1.605-6.294 4.604zM35.604 31.269c-6.589 0-11.236-4.646-11.236-10.982s4.646-10.982 11.236-10.982c5.618 0 9.757 3.379 10.813 8.237h-4.604c-0.972-2.408-3.21-4.013-6.209-4.013-3.971 0-6.632 2.83-6.632 6.758s2.661 6.758 6.632 6.758c2.999 0 5.238-1.605 6.209-4.013h4.604c-1.056 4.858-5.196 8.237-10.813 8.237zM58.417 31.269c-6.589 0-11.236-4.646-11.236-10.982s4.646-10.982 11.236-10.982c6.589 0 11.236 4.646 11.236 10.982s-4.646 10.982-11.236 10.982zM58.417 27.045c3.971 0 6.589-2.83 6.589-6.758s-2.619-6.758-6.589-6.758c-3.971 0-6.632 2.83-6.632 6.758s2.661 6.758 6.632 6.758zM79.192 31.269c-5.28 0-8.617-2.83-8.744-6.674h4.604c0.084 1.563 1.478 2.619 4.14 2.619 2.788 0 4.097-1.183 4.097-2.619 0-1.774-1.985-1.985-4.435-2.323-3.379-0.422-7.983-1.056-7.983-5.998 0-4.182 3.252-6.97 8.279-6.97s8.152 2.872 8.237 6.505h-4.52c-0.127-1.436-1.436-2.45-3.675-2.45-2.408 0-3.717 1.14-3.717 2.577 0 1.774 2.070 1.985 4.435 2.323 3.21 0.422 7.983 1.014 7.983 5.998 0 4.224-3.421 7.012-8.701 7.012zM99.959 31.269c-6.589 0-11.236-4.646-11.236-10.982s4.646-10.982 11.236-10.982c6.589 0 11.236 4.646 11.236 10.982s-4.646 10.982-11.236 10.982zM99.959 27.045c3.971 0 6.589-2.83 6.589-6.758s-2.619-6.758-6.589-6.758c-3.971 0-6.632 2.83-6.632 6.758s2.661 6.758 6.632 6.758zM113.511 30.72v-29.99h4.562v29.99h-4.562zM131.599 31.269c-6.168 0-10.307-3.548-10.307-10.56v-10.856h4.562v10.856c0 4.224 2.282 6.336 5.745 6.336s5.745-2.112 5.745-6.336v-10.856h4.562v10.856c0 6.97-4.14 10.56-10.307 10.56zM152.8 31.269c-5.027 0-8.448-2.788-8.448-8.532v-20.275h4.562v7.392h11.109v4.14h-11.109v8.744c0 3.041 1.563 4.308 3.886 4.308s3.928-1.225 3.928-4.308v-0.507h4.52v0.507c0 5.745-3.421 8.532-8.448 8.532zM165.875 6.897c-1.774 0-3.084-1.352-3.084-3.126s1.309-3.126 3.084-3.126c1.774 0 3.084 1.352 3.084 3.126s-1.309 3.126-3.084 3.126zM163.552 30.72v-20.867h4.562v20.867h-4.562zM181.683 31.269c-6.589 0-11.236-4.646-11.236-10.982s4.646-10.982 11.236-10.982c6.589 0 11.236 4.646 11.236 10.982s-4.646 10.982-11.236 10.982zM181.683 27.045c3.971 0 6.589-2.83 6.589-6.758s-2.619-6.758-6.589-6.758c-3.971 0-6.632 2.83-6.632 6.758s2.661 6.758 6.632 6.758zM194.518 30.72v-10.856c0-6.97 4.14-10.56 10.307-10.56s10.307 3.548 10.307 10.56v10.856h-4.562v-10.856c0-4.224-2.281-6.336-5.745-6.336s-5.745 2.112-5.745 6.336v10.856h-4.562z"></path>
</svg>
